<?xml version="1.0" standalone="no"?>
<!DOCTYPE svg PUBLIC "-//W3C//DTD SVG 20010904//EN"
 "http://www.w3.org/TR/2001/REC-SVG-20010904/DTD/svg10.dtd">
<svg version="1.0" xmlns="http://www.w3.org/2000/svg"
 width="299.000000pt" height="299.000000pt" viewBox="0 0 299.000000 299.000000"
 preserveAspectRatio="xMidYMid meet">
<metadata>
Created by potrace 1.14, written by Peter Selinger 2001-2017
</metadata>
<g transform="translate(0.000000,299.000000) scale(0.100000,-0.100000)"
fill="#000000" stroke="none">
<path d="M10 1495 l0 -1495 1480 0 1480 0 0 1495 0 1495 -1480 0 -1480 0 0
-1495z m1588 1199 c7 -187 -14 -253 -69 -224 -20 11 -21 18 -17 157 3 127 5
146 21 158 12 9 27 11 40 6 20 -7 22 -17 25 -97z m-721 -126 c48 -54 143 -196
143 -214 0 -25 -18 -44 -42 -44 -19 0 -64 53 -141 167 -42 61 -47 74 -38 92
15 28 52 27 78 -1z m1431 -60 c7 -7 12 -21 12 -32 -1 -25 -151 -230 -175 -240
-24 -9 -55 11 -55 37 0 21 91 159 146 220 26 29 52 35 72 15z m-637 -142 c172
-37 325 -132 438 -271 174 -216 220 -507 120 -766 -75 -195 -229 -354 -419
-435 -95 -40 -218 -65 -309 -62 -58 1 -60 2 -16 5 230 15 383 80 520 218 127
129 193 278 202 456 13 241 -80 449 -266 599 -124 100 -278 153 -441 152 -257
0 -478 -126 -614 -350 -89 -146 -119 -355 -77 -522 25 -101 65 -188 114 -253
41 -53 43 -57 23 -57 -18 0 -95 106 -135 186 -58 118 -76 196 -76 339 0 153
21 240 87 367 44 85 146 203 226 262 72 53 182 104 269 125 95 24 260 27 354
7z m257 -538 c-4 -115 -7 -141 -23 -158 -34 -37 -116 -69 -210 -80 -136 -17
-196 -30 -240 -54 l-40 -21 144 -3 c133 -2 256 11 314 33 12 5 17 2 17 -11 -1
-36 -66 -189 -104 -247 -106 -160 -345 -270 -612 -284 -68 -4 -113 -2 -117 4
-10 16 33 91 63 113 16 11 60 33 98 48 74 31 192 105 230 144 l22 25 -72 -25
c-40 -13 -109 -31 -153 -38 -44 -8 -102 -25 -128 -39 l-48 -24 6 37 c29 167
82 291 159 367 66 65 165 116 329 170 143 46 222 88 307 164 43 39 56 46 59
33 2 -9 1 -79 -1 -154z m-1401 81 c134 -47 143 -52 143 -85 0 -45 -29 -47
-140 -9 -159 55 -170 61 -170 87 0 26 17 48 36 48 7 0 66 -19 131 -41z m2141
29 c18 -18 15 -56 -5 -67 -29 -15 -229 -71 -255 -71 -43 0 -64 44 -34 69 16
13 229 78 262 80 11 1 25 -4 32 -11z m-176 -684 c135 -47 138 -49 138 -84 0
-48 -32 -48 -166 0 -65 22 -124 46 -131 52 -14 11 -18 50 -6 61 14 15 65 6
165 -29z m-1229 -393 c124 -43 238 -86 251 -94 54 -36 37 -125 -27 -146 -19
-7 -43 -9 -53 -5 -11 3 -7 -2 8 -12 60 -40 56 -123 -7 -153 -29 -14 -41 -11
-264 65 -137 46 -246 89 -263 102 -70 59 0 175 86 142 18 -6 25 -6 21 0 -3 6
-11 10 -17 10 -7 0 -22 10 -35 22 -51 48 -13 146 57 148 9 0 118 -35 243 -79z
m-153 -346 c69 -24 149 -51 178 -60 28 -10 52 -23 52 -30 0 -25 -61 -95 -99
-115 -45 -22 -131 -27 -178 -9 -69 26 -123 109 -123 188 0 63 8 84 29 76 8 -3
72 -26 141 -50z"/>
<path d="M1037 749 c7 -7 15 -10 18 -7 3 3 -2 9 -12 12 -14 6 -15 5 -6 -5z"/>
<path d="M1190 696 c0 -2 7 -7 16 -10 8 -3 12 -2 9 4 -6 10 -25 14 -25 6z"/>
<path d="M1238 678 c5 -5 16 -8 23 -6 8 3 3 7 -10 11 -17 4 -21 3 -13 -5z"/>
<path d="M1290 660 c8 -5 20 -10 25 -10 6 0 3 5 -5 10 -8 5 -19 10 -25 10 -5
0 -3 -5 5 -10z"/>
</g>
</svg>
